<svg xmlns="http://www.w3.org/2000/svg" version="1.0" xml:space="preserve" viewBox="117.69 426.4 1044.71 171.6"><path d="M260.6 426.4c1.4 0 2.6.6 3.5 1.5l23.7 23.6c1 .9 1.6 2.2 1.5 3.5v80.1c0 34.8-28.3 62.9-62.9 62.9h-80.1c-1.3 0-2.6-.6-3.5-1.5l-23.6-23.6c-1-.9-1.6-2.2-1.5-3.5v-80.1c0-34.8 28.1-62.9 62.7-62.9zM140.7 573.2v-83.9c0-22.1 17.8-39.9 39.9-40.1h61.1c.9 0 1.7.8 1.7 1.7v81.6c0 10.7-8.7 19.3-19.4 19.4h-43.1c-.6 0-1.2.5-1.5 1.1l-2.9 7.6c-.4.8 0 1.8.8 2.1.2.1.4.1.7.1h48.4c15.3 0 27.8-12.3 27.8-27.7v-95c0-.9-.7-1.7-1.7-1.7h-72c-28 0-50.8 22.6-50.8 50.6v76.6c0 .4.2.9.5 1.2l7.6 7.6c.7.7 1.7.7 2.4 0 .3-.3.5-.7.5-1.2m34.9-35v-46.6c0-3.9 3.2-7.1 7.3-7.1h46.6c.9 0 1.7.8 1.7 1.7v46.6c0 3.9-3.2 7.3-7.1 7.3h-46.7c-1-.3-1.8-1-1.8-1.9m50.8 47.6c28 0 50.7-22.8 50.7-50.8v-76.4c0-.4-.2-.9-.5-1.2l-7.6-7.6c-.7-.7-1.7-.7-2.4 0-.3.3-.5.8-.5 1.2v84.1c0 22-17.8 39.9-39.8 39.9h-61.2c-.9 0-1.7-.8-1.7-1.7v-81.6c0-10.7 8.7-19.3 19.4-19.4h43.1c.6 0 1.2-.5 1.5-1.1l2.9-7.6c.4-.8 0-1.8-.8-2.1-.2-.1-.4-.1-.7-.1h-48.2c-15.4 0-27.8 12.5-27.8 27.8V584c0 .9.8 1.7 1.7 1.7zm914.5-56.3c-.9-1.7-.5-3.8 1.1-5 4.5-3.4 8.2-7.7 10.9-12.7 3.2-5.9 4.8-13.2 4.8-21.6 0-5.6-.9-10.9-2.6-16-1.7-5-4.6-9.5-8.5-13-3.9-3.6-9.2-6.7-15.7-8.8s-14.5-3.2-24.2-3.2H1057c-2.2 0-3.9 1.8-3.9 3.9v117.3c0 2.1 1.8 3.9 3.9 3.9h29.6c2.1 0 3.9-1.8 3.9-3.9v-32.2c0-2.1 1.8-3.9 3.9-3.9h7.7c1.5 0 2.9.9 3.5 2.1l17.8 35.8c.6 1.3 2 2.2 3.5 2.1h31.6c2.2 0 3.9-1.7 3.9-3.9 0-.6-.2-1.3-.5-1.8.2.1-21-39.1-21-39.1m-37.4-24c6.1 0 10.1-1.1 12.7-3.3 2.6-2.3 3.8-5.6 3.8-10s-1.2-7.7-3.8-10-6.8-3.3-12.7-3.3h-9.4c-2.2 0-3.9 1.8-3.9 3.9v18.7c0 2.1 1.8 3.9 3.9 3.9h9.4zm-89.2 38.4H965c-2.2 0-3.9-1.8-3.9-3.9v-9.4c0-2.1 1.8-3.9 3.9-3.9h42.6c2.1 0 3.9-1.8 3.9-3.9V500c0-2.2-1.8-3.9-3.9-3.9H965c-2.2 0-3.9-1.8-3.9-3.9v-8c0-2.1 1.8-3.9 3.9-3.9h46.3c2.1 0 3.9-1.8 3.9-3.9v-22.8c0-2.2-1.8-3.9-3.9-3.9H926c-2.2 0-3.9 1.8-3.9 3.9v117.3c0 2.1 1.8 3.9 3.9 3.9h86.2c2.1 0 3.8-1.6 3.9-3.6l2.3-22.8c.2-2.5-1.8-4.5-4.1-4.5m-140.6-39.2c-1.7 1.3-2 3.8-.7 5.5.3.4.6.7 1 .9 9.1 5.9 13.6 14.8 13.6 26.6q0 7.5-2.4 14.1c-1.5 4.5-4.4 8.5-8.2 11.8-3.9 3.3-8.9 6.1-15.1 8-6.2 2-13.9 3-23 3H786c-2.2 0-3.9-1.8-3.9-3.9V453.3c0-2.1 1.8-3.9 3.9-3.9h54.4c8.5 0 15.4.9 21 2.6s10.1 4.1 13.5 7c3.3 3 5.7 6.3 7.1 10.3 1.4 3.9 2.1 8 2.1 12.4q0 8.4-3.6 15.3c-1.7 2.9-4 5.6-6.8 7.7m-55.3-22.8c0-2.1 1.8-3.9 3.9-3.9h11.6c4.8 0 8.3.8 10 2.4 1.8 1.7 2.6 3.9 2.6 7 0 3-.9 5.4-2.6 7-1.8 1.7-5.1 2.4-10 2.4h-11.7c-2.2 0-3.9-1.8-3.9-3.9zm16.4 64.1c5.9 0 10-1.1 12.1-3 2.1-2 3.2-4.8 3.2-8.3 0-3.8-1.1-6.7-3.2-8.6-2.1-2-6.2-3-12.1-3h-12.6c-2.2 0-3.9 1.8-3.9 3.9v15.1c0 2.1 1.8 3.9 3.9 3.9zm-100.7-34.9a4 4 0 0 1-1.2-5.4c.2-.4.5-.7.9-1 2.7-2.2 5.1-4.8 6.8-7.9 2.4-4.5 3.6-9.7 3.6-15.3 0-4.4-.8-8.5-2.1-12.4-1.4-3.9-3.8-7.3-7.1-10.3-3.3-2.9-7.9-5.3-13.5-7s-12.6-2.6-21-2.6H646c-2.2 0-3.9 1.8-3.9 3.9v117.3c0 2.1 1.8 3.9 3.9 3.9h52.9c9.1 0 16.8-1.1 23-3 6.2-2 11.2-4.7 15.1-8 3.8-3.3 6.6-7.3 8.2-11.8 1.7-4.4 2.4-9.1 2.4-14.1.1-11.5-4.4-20.4-13.5-26.3M682.4 478c-2.2 0-3.9 1.8-3.9 3.9v10.9c0 2.1 1.8 3.9 3.9 3.9H694c4.8 0 8.2-.8 10-2.4 1.7-1.5 2.6-3.9 2.6-7 0-3-.8-5.3-2.6-7-1.7-1.7-5.1-2.4-10-2.4.1.1-11.6.1-11.6.1m24.7 65c-2.1 2-6.2 3-12.1 3h-12.6c-2.2 0-3.9-1.8-3.9-3.9V527c0-2.1 1.8-3.9 3.9-3.9H695c5.9 0 10 1.1 12.1 3 2.1 2 3.2 4.8 3.2 8.6 0 3.5-1.1 6.3-3.2 8.3m-135.6-92.2c7.9 2.9 14.4 7.3 19.7 12.8 5.3 5.6 9.2 12.4 11.9 20.3 2.7 8 4.1 17.1 4.1 27.2 0 10.3-1.4 19.4-4.1 27.7s-6.8 15.3-12.1 21a52.06 52.06 0 0 1-20 13.3c-8 3.2-17.1 4.7-27.5 4.7-10.1 0-19.2-1.5-26.9-4.5-7.5-2.7-14.2-7.1-19.6-12.9-5.3-5.6-9.2-12.6-12-20.6-2.7-8-4.1-17.2-4.1-27.4 0-10.1 1.4-19.2 4.1-27.4s6.6-15.1 12.1-20.9c5.5-5.9 12.3-10.5 20-13.3 7.9-3.2 17.1-4.7 27.5-4.7 10.1.1 19.1 1.6 26.9 4.7m-27.6 92.8c-14.7 0-21.9-10.6-21.9-31.6s7.3-31.6 21.9-31.6c14.7 0 21.9 10.6 21.9 31.6.1 21-7.2 31.6-21.9 31.6m-133-94.2h31.9c2.1 0 3.9 1.7 3.8 3.9v72.6c0 17.1-4.7 29.9-14.1 38.7-9.4 8.6-22.4 13-38.9 13-17.4 0-30.5-4.4-39.5-13.5-8-8.2-12.7-19.8-13.8-34.8-.1-2.2 1.5-4.1 3.7-4.2h32.1c2 0 3.6 1.5 3.9 3.5.4 4.2 1.7 7.6 3.3 10.1 2.1 3.2 5.6 4.8 10.3 4.8s8-1.4 10.1-4.2c2-2.9 3-6.8 3-11.6v-74.4c.2-2.1 2-3.9 4.2-3.9" style="fill-rule:evenodd;clip-rule:evenodd;fill:#012939"/></svg>