<svg xmlns="http://www.w3.org/2000/svg" viewBox="0 0 505.26 130"><path d="M167.15 31.89v24.62H157v-22.4c0-5.14-2-8-7.35-8-5.71 0-8.77 3.36-8.77 9.78v20.62h-10.26V1.57h10.21v21.05A14.07 14.07 0 0 1 153 16.41c8.8 0 14.15 5.85 14.15 15.48m45.59 5a20.44 20.44 0 1 1-40.88 0 20.44 20.44 0 1 1 40.88 0m-30.61 0c0 6.49 4.43 10.77 10.14 10.77s10.13-4.28 10.13-10.77-4.4-10.78-10.13-10.78-10.14 4.36-10.14 10.78m94.68-5.21v24.83h-10.2V33.89c0-5-1.85-7.78-6.78-7.78-5.35 0-8.13 3.57-8.13 9.78v20.62h-10.2V33.89c0-5-1.86-7.78-6.78-7.78-5.35 0-8.21 3.57-8.21 9.78l.07 20.62h-10.27V17.27h10.27v5.21a13.42 13.42 0 0 1 11.63-6.07c5.64 0 9.78 2.64 11.92 7.42a14.86 14.86 0 0 1 13.13-7.42c8.35 0 13.55 5.78 13.55 15.27m45.24 7.85h-30.11c.64 6.28 4.92 9.42 10.2 9.42 3.92 0 7.35-1.79 8.7-4.93h10.56c-2.92 9.28-10.77 13.35-19.19 13.35-12.27 0-20.69-8.71-20.69-20.41S290 16.41 302 16.41c13 0 21.05 10.2 20.05 23.12M292.44 32h18.76a9.13 9.13 0 0 0-9.27-7.21c-5 .04-8.21 3.04-9.49 7.21m33.24 12.24h6.07c1.57 5.49 5.63 7.42 12.91 7.42 5.85 0 10.13-2.07 10.13-5.85s-4.35-4.64-11.56-6.42c-10.84-2.72-15.55-4.64-15.55-11.06 0-7.57 6.64-11.85 15.91-11.85s15.13 4.21 16.7 11.28h-6c-1.5-4-5.28-5.64-10.56-5.64-6.36 0-10.07 2.43-10.07 5.78 0 3.14 3.14 4 11.06 6 10.06 2.5 16.13 4.07 16.13 11.42 0 8.06-7.35 12-16.2 12-10.26-.02-17.4-4.81-18.97-13.08m74.71-26.97v39.24h-5.93v-7.78a14.9 14.9 0 0 1-14 8.57c-8.71 0-13.92-5.57-13.92-15.13v-24.9h5.93V41c0 7 3.28 10.63 9.7 10.63 7.78 0 12.27-5.57 12.27-14.27V17.27Zm15.33-13.35A4.14 4.14 0 1 1 411.58 0a4 4 0 0 1 4.14 3.92m-7.13 13.35h5.92v39.24h-5.92Zm43.09 37.53a24.8 24.8 0 0 1-10.63 2.5c-8.42 0-14.05-5.43-14.05-15.77v-18.7h-7.57v-5.56H427V7.85l5.92-1.29v10.71h17.62v5.56h-17.62v18.41c0 6.71 3 10.56 9.13 10.56a25.3 25.3 0 0 0 8.56-1.93Zm42.24-16.13h-33.6c.57 8.14 6.35 13.06 14.27 13.06 5.42 0 9.91-2.28 12.27-6.85H493c-3.28 8.35-10.41 12.42-18.62 12.42-11.64 0-20.13-8.3-20.13-20.3s8.35-20.55 20.05-20.55c12.2.03 20.12 9.31 19.62 22.22m-33.32-5.56h26.9c-1.28-6.57-6.14-11.06-13.2-11.06a13.54 13.54 0 0 0-13.7 11.06M169.79 72.92l-.07 39.24h-10.2v-5.28a14.59 14.59 0 0 1-12.27 6.12c-10.28 0-17.91-8.42-17.91-20.48s7.77-20.48 17.84-20.48a14.74 14.74 0 0 1 12.41 6.35v-5.47Zm-10.2 19.62c0-6.42-4.35-10.77-10.06-10.77s-9.92 4.35-9.92 10.77 4.28 10.77 9.92 10.77 10.06-4.31 10.06-10.77m57.08 0c0 12.06-7.71 20.48-17.91 20.48a14.83 14.83 0 0 1-12.41-6.14V130h-10.21V72.92h10.21v5.49a14.83 14.83 0 0 1 12.41-6.35c10.06 0 17.91 8.35 17.91 20.48m-10.35 0c0-6.42-4.21-10.77-9.91-10.77s-10.06 4.35-10.06 10.77 4.35 10.77 10.06 10.77 9.91-4.31 9.91-10.77m53.44-19.62-.07 39.24h-10.2v-5.28a14.59 14.59 0 0 1-12.27 6.12c-10.28 0-17.91-8.42-17.91-20.48s7.77-20.48 17.83-20.48a14.75 14.75 0 0 1 12.42 6.35v-5.47Zm-10.2 19.62c0-6.42-4.35-10.77-10.06-10.77s-9.92 4.35-9.92 10.77 4.28 10.77 9.92 10.77 10.06-4.31 10.06-10.77m40.95-20.33v10.48a23 23 0 0 0-2.5-.14c-6.49 0-12.05 2.86-12.05 12.13v17.48h-10.21V72.92H276v6.85a12.74 12.74 0 0 1 12.27-7.71 17.5 17.5 0 0 1 2.24.15m31.18 37.67A23.9 23.9 0 0 1 310 113c-7.85 0-14.7-4.71-14.7-16V64.43l10.2-2.21v10.7h14.56v9.63h-14.57v13.91c0 4.64 2.21 7.07 6.28 7.07a26.3 26.3 0 0 0 8.23-1.93Zm65-22.55v24.83h-10.2V89.54c0-5-1.86-7.77-6.78-7.77-5.36 0-8.14 3.56-8.14 9.77v20.62h-10.2V89.54c0-5-1.86-7.77-6.78-7.77-5.35 0-8.2 3.56-8.2 9.77l.07 20.62h-10.28V72.92h10.28v5.21a13.39 13.39 0 0 1 11.63-6.07c5.63 0 9.77 2.64 11.91 7.42a14.89 14.89 0 0 1 13.13-7.42c8.35 0 13.56 5.78 13.56 15.27m43.8 7.85h-30.11c.64 6.28 4.93 9.42 10.21 9.42 3.92 0 7.35-1.79 8.7-4.92h10.56C426.92 109 419.08 113 410.66 113c-12.28 0-20.7-8.71-20.7-20.41s8.5-20.55 20.48-20.55c12.99.02 21.05 10.23 20.05 23.14m-29.61-7.49h18.77a9.15 9.15 0 0 0-9.28-7.21c-4.99 0-8.2 3-9.49 7.21m69.57-.14v24.61h-10.21v-22.4c0-5.14-1.92-8-7.35-8-5.78 0-8.84 3.35-8.84 9.77v20.62h-10.21V72.92h10.21v5.35a14.07 14.07 0 0 1 12.2-6.21c8.85 0 14.2 5.85 14.2 15.49m34.81 22.33a23.9 23.9 0 0 1-11.7 3.14c-7.85 0-14.7-4.71-14.7-16V82.55h-7v-9.63h7v-8.49l10.21-2.21v10.7h14.55v9.63h-14.55v13.91c0 4.64 2.21 7.07 6.28 7.07a26.3 26.3 0 0 0 8.2-1.93Z"/><rect fill="#743bff" x="39.25" y="90.78" width="31.31" height="30.43" rx="15.22" transform="rotate(-45 54.906 105.997)"/><path fill="#743bff" d="M54.91 8.15 0 47.92V91.1h30.43V63.46l24.48-17.74 24.47 17.74V91.1h30.43V47.92z"/></svg>